RobotoSerifDisplay-RegularWidth1750 00m.ufo
<glyph name="slash" format="2">
  <advance width="492"/>
  <unicode hex="002F"/>
  <outline>
    <contour>
      <point x="473" y="750" type="line"/>
      <point x="-24" y="-128" type="line"/>
      <point x="19" y="-128" type="line"/>
      <point x="515" y="750" type="line"/>
    </contour>
  </outline>
</glyph>
<glyph name="two" format="2">
  <advance width="702"/>
  <unicode hex="0032"/>
  <outline>
    <contour>
      <point x="474" y="69" type="line" smooth="yes"/>
      <point x="557" y="69"/>
      <point x="585" y="81"/>
      <point x="597" y="142" type="curve" smooth="yes"/>
      <point x="610" y="207" type="line"/>
      <point x="642" y="207" type="line"/>
      <point x="642" y="0" type="line"/>
      <point x="65" y="0" type="line"/>
      <point x="65" y="45" type="line"/>
      <point x="325" y="148"/>
      <point x="513" y="245"/>
      <point x="513" y="440" type="curve" smooth="yes"/>
      <point x="513" y="539"/>
      <point x="468" y="589"/>
      <point x="340" y="589" type="curve" smooth="yes"/>
      <point x="239" y="589"/>
      <point x="172" y="560"/>
      <point x="132" y="515" type="curve"/>
      <point x="134" y="528"/>
      <point x="157" y="563"/>
      <point x="181" y="564" type="curve"/>
      <point x="181" y="431" type="line"/>
      <point x="91" y="431" type="line"/>
      <point x="91" y="537" type="line"/>
      <point x="135" y="575"/>
      <point x="221" y="619"/>
      <point x="349" y="619" type="curve" smooth="yes"/>
      <point x="510" y="619"/>
      <point x="613" y="554"/>
      <point x="613" y="439" type="curve" smooth="yes"/>
      <point x="613" y="250"/>
      <point x="339" y="119"/>
      <point x="105" y="34" type="curve"/>
      <point x="101" y="37"/>
      <point x="131" y="63"/>
      <point x="137" y="69" type="curve"/>
    </contour>
  </outline>
</glyph>
<glyph name="four" format="2">
  <advance width="686"/>
  <unicode hex="0034"/>
  <guideline x="64" y="143" angle="47.872408562944244" identifier="1d5rYAD414"/>
  <outline>
    <contour>
      <point x="20" y="116" type="line"/>
      <point x="676" y="116" type="line"/>
      <point x="676" y="169" type="line"/>
      <point x="53" y="169" type="line"/>
      <point x="51" y="143" type="line"/>
      <point x="465" y="601" type="line"/>
      <point x="471" y="609" type="line"/>
      <point x="427" y="609" type="line"/>
      <point x="20" y="159" type="line"/>
    </contour>
    <contour>
      <point x="520" y="-77" type="line"/>
      <point x="520" y="609" type="line"/>
      <point x="448" y="609" type="line"/>
      <point x="422" y="579" type="line"/>
      <point x="422" y="-77" type="line"/>
    </contour>
  </outline>
</glyph>
<glyph name="F" format="2">
  <advance width="715"/>
  <unicode hex="0046"/>
  <outline>
    <contour>
      <point x="246" y="675" type="line"/>
      <point x="505" y="675" type="line" smooth="yes"/>
      <point x="597" y="675"/>
      <point x="610" y="654"/>
      <point x="623" y="593" type="curve" smooth="yes"/>
      <point x="638" y="525" type="line"/>
      <point x="670" y="525" type="line"/>
      <point x="670" y="710" type="line"/>
      <point x="40" y="710" type="line"/>
      <point x="40" y="680" type="line"/>
      <point x="65" y="680" type="line" smooth="yes"/>
      <point x="110" y="680"/>
      <point x="149" y="670"/>
      <point x="149" y="626" type="curve" smooth="yes"/>
      <point x="149" y="84" type="line" smooth="yes"/>
      <point x="149" y="40"/>
      <point x="111" y="30"/>
      <point x="65" y="30" type="curve" smooth="yes"/>
      <point x="40" y="30" type="line"/>
      <point x="40" y="0" type="line"/>
      <point x="375" y="0" type="line"/>
      <point x="375" y="30" type="line"/>
      <point x="337" y="30" type="line" smooth="yes"/>
      <point x="297" y="30"/>
      <point x="246" y="33"/>
      <point x="246" y="72" type="curve" smooth="yes"/>
    </contour>
    <contour>
      <point x="232" y="376" type="curve"/>
      <point x="232" y="345" type="line"/>
      <point x="364" y="343"/>
      <point x="464" y="339"/>
      <point x="568" y="327" type="curve"/>
      <point x="568" y="394" type="line"/>
      <point x="464" y="383"/>
      <point x="364" y="378"/>
    </contour>
  </outline>
</glyph>
<glyph name="K" format="2">
  <advance width="848"/>
  <unicode hex="004B"/>
  <guideline x="726" y="60" angle="316.6615490499348" identifier="hAGTVnlKxJ"/>
  <guideline x="671" y="645" angle="40.28612507385111" identifier="1R1kGHBCSE"/>
  <outline>
    <contour>
      <point x="511" y="0" type="line"/>
      <point x="838" y="0" type="line"/>
      <point x="838" y="27" type="line"/>
      <point x="830" y="27" type="line" smooth="yes"/>
      <point x="773" y="27"/>
      <point x="755" y="31"/>
      <point x="726" y="60" type="curve" smooth="yes"/>
      <point x="365" y="410" type="line"/>
      <point x="351" y="373" type="line"/>
      <point x="671" y="645" type="line" smooth="yes"/>
      <point x="704" y="673"/>
      <point x="722" y="683"/>
      <point x="779" y="683" type="curve" smooth="yes"/>
      <point x="793" y="683" type="line"/>
      <point x="793" y="710" type="line"/>
      <point x="544" y="710" type="line"/>
      <point x="544" y="683" type="line"/>
      <point x="563" y="683" type="line" smooth="yes"/>
      <point x="600" y="683"/>
      <point x="648" y="677"/>
      <point x="649" y="669" type="curve"/>
      <point x="289" y="363" type="line"/>
      <point x="289" y="355" type="line"/>
      <point x="616" y="37" type="line"/>
      <point x="616" y="30"/>
      <point x="561" y="27"/>
      <point x="526" y="27" type="curve" smooth="yes"/>
      <point x="511" y="27" type="line"/>
    </contour>
    <contour>
      <point x="40" y="0" type="line"/>
      <point x="354" y="0" type="line"/>
      <point x="354" y="30" type="line"/>
      <point x="328" y="30" type="line" smooth="yes"/>
      <point x="292" y="30"/>
      <point x="246" y="35"/>
      <point x="246" y="46" type="curve" smooth="yes"/>
      <point x="246" y="664" type="line" smooth="yes"/>
      <point x="246" y="675"/>
      <point x="292" y="680"/>
      <point x="328" y="680" type="curve" smooth="yes"/>
      <point x="354" y="680" type="line"/>
      <point x="354" y="710" type="line"/>
      <point x="40" y="710" type="line"/>
      <point x="40" y="680" type="line"/>
      <point x="65" y="680" type="line" smooth="yes"/>
      <point x="110" y="680"/>
      <point x="149" y="670"/>
      <point x="149" y="626" type="curve" smooth="yes"/>
      <point x="149" y="84" type="line" smooth="yes"/>
      <point x="149" y="40"/>
      <point x="111" y="30"/>
      <point x="65" y="30" type="curve" smooth="yes"/>
      <point x="40" y="30" type="line"/>
    </contour>
  </outline>
</glyph>
<glyph name="L" format="2">
  <advance width="725"/>
  <unicode hex="004C"/>
  <outline>
    <contour>
      <point x="356" y="710" type="line"/>
      <point x="356" y="680" type="line"/>
      <point x="329" y="680" type="line" smooth="yes"/>
      <point x="289" y="680"/>
      <point x="246" y="675"/>
      <point x="246" y="659" type="curve" smooth="yes"/>
      <point x="246" y="35" type="line"/>
      <point x="505" y="35" type="line" smooth="yes"/>
      <point x="604" y="35"/>
      <point x="620" y="57"/>
      <point x="631" y="125" type="curve" smooth="yes"/>
      <point x="648" y="226" type="line"/>
      <point x="680" y="226" type="line"/>
      <point x="680" y="0" type="line"/>
      <point x="40" y="0" type="line"/>
      <point x="40" y="30" type="line"/>
      <point x="65" y="30" type="line" smooth="yes"/>
      <point x="111" y="30"/>
      <point x="149" y="40"/>
      <point x="149" y="84" type="curve" smooth="yes"/>
      <point x="149" y="626" type="line" smooth="yes"/>
      <point x="149" y="670"/>
      <point x="110" y="680"/>
      <point x="65" y="680" type="curve" smooth="yes"/>
      <point x="40" y="680" type="line"/>
      <point x="40" y="710" type="line"/>
    </contour>
  </outline>
</glyph>
<glyph name="N" format="2">
  <advance width="912"/>
  <unicode hex="004E"/>
  <guideline x="266" y="710" angle="307.05438203892504" identifier="FODJyQVaC7"/>
  <outline>
    <contour>
      <point x="40" y="0" type="line"/>
      <point x="312" y="0" type="line"/>
      <point x="312" y="30" type="line"/>
      <point x="269" y="30" type="line" smooth="yes"/>
      <point x="224" y="30"/>
      <point x="187" y="40"/>
      <point x="187" y="78" type="curve" smooth="yes"/>
      <point x="187" y="690" type="line"/>
      <point x="167" y="683" type="line"/>
      <point x="691" y="0" type="line"/>
      <point x="763" y="0" type="line"/>
      <point x="763" y="587" type="line" smooth="yes"/>
      <point x="763" y="654"/>
      <point x="801" y="680"/>
      <point x="844" y="680" type="curve" smooth="yes"/>
      <point x="872" y="680" type="line"/>
      <point x="872" y="710" type="line"/>
      <point x="600" y="710" type="line"/>
      <point x="600" y="680" type="line"/>
      <point x="643" y="680" type="line" smooth="yes"/>
      <point x="688" y="680"/>
      <point x="725" y="670"/>
      <point x="725" y="632" type="curve"/>
      <point x="725" y="79" type="line"/>
      <point x="742" y="85" type="line"/>
      <point x="262" y="710" type="line"/>
      <point x="40" y="710" type="line"/>
      <point x="40" y="680" type="line"/>
      <point x="68" y="680" type="line" smooth="yes"/>
      <point x="108" y="680"/>
      <point x="149" y="670"/>
      <point x="149" y="626" type="curve" smooth="yes"/>
      <point x="149" y="123" type="line" smooth="yes"/>
      <point x="149" y="56"/>
      <point x="111" y="30"/>
      <point x="68" y="30" type="curve" smooth="yes"/>
      <point x="40" y="30" type="line"/>
    </contour>
  </outline>
</glyph>
<glyph name="underscore" format="2">
  <advance width="593"/>
  <unicode hex="005F"/>
  <outline>
    <contour>
      <point x="-12" y="-98" type="line"/>
      <point x="-12" y="-141" type="line"/>
      <point x="605" y="-141" type="line"/>
      <point x="605" y="-98" type="line"/>
    </contour>
  </outline>
</glyph>
<glyph name="k" format="2">
  <advance width="706"/>
  <unicode hex="006B"/>
  <guideline x="601" y="62" angle="315.9508799859365" identifier="xs5d1JN3sf"/>
  <guideline x="539" y="445" angle="35.68389346311708" identifier="ioa65xr5FF"/>
  <outline>
    <contour>
      <point x="696" y="0" type="line"/>
      <point x="696" y="30" type="line"/>
      <point x="689" y="30" type="line" smooth="yes"/>
      <point x="665" y="30"/>
      <point x="625" y="36"/>
      <point x="598" y="62" type="curve" smooth="yes"/>
      <point x="332" y="323" type="line"/>
      <point x="317" y="289" type="line"/>
      <point x="534" y="445" type="line" smooth="yes"/>
      <point x="576" y="475"/>
      <point x="613" y="488"/>
      <point x="654" y="488" type="curve" smooth="yes"/>
      <point x="661" y="488" type="line"/>
      <point x="661" y="518" type="line"/>
      <point x="415" y="518" type="line"/>
      <point x="415" y="488" type="line"/>
      <point x="428" y="488" type="line" smooth="yes"/>
      <point x="470" y="488"/>
      <point x="513" y="480"/>
      <point x="514" y="466" type="curve"/>
      <point x="255" y="280" type="line"/>
      <point x="255" y="275" type="line"/>
      <point x="496" y="38" type="line"/>
      <point x="496" y="31"/>
      <point x="449" y="30"/>
      <point x="422" y="30" type="curve" smooth="yes"/>
      <point x="415" y="30" type="line"/>
      <point x="415" y="0" type="line"/>
    </contour>
    <contour>
      <point x="224" y="750" type="line"/>
      <point x="30" y="750" type="line"/>
      <point x="30" y="720" type="line"/>
      <point x="59" y="718" type="line" smooth="yes"/>
      <point x="110" y="714"/>
      <point x="130" y="697"/>
      <point x="130" y="661" type="curve" smooth="yes"/>
      <point x="130" y="76" type="line" smooth="yes"/>
      <point x="130" y="38"/>
      <point x="94" y="30"/>
      <point x="47" y="30" type="curve" smooth="yes"/>
      <point x="31" y="30" type="line"/>
      <point x="31" y="0" type="line"/>
      <point x="317" y="0" type="line"/>
      <point x="317" y="30" type="line"/>
      <point x="302" y="30" type="line" smooth="yes"/>
      <point x="261" y="30"/>
      <point x="224" y="36"/>
      <point x="224" y="47" type="curve" smooth="yes"/>
    </contour>
  </outline>
</glyph>
<glyph name="m" format="2">
  <advance width="1107"/>
  <unicode hex="006D"/>
  <outline>
    <contour>
      <point x="31" y="0" type="line"/>
      <point x="314" y="0" type="line"/>
      <point x="314" y="30" type="line"/>
      <point x="300" y="30.0" type="line" smooth="yes"/>
      <point x="264" y="30.0"/>
      <point x="224.0" y="34"/>
      <point x="224.0" y="44.0" type="curve" smooth="yes"/>
      <point x="224" y="405" type="line"/>
      <point x="218" y="412" type="line"/>
      <point x="218" y="518" type="line"/>
      <point x="31" y="518" type="line"/>
      <point x="31" y="488" type="line"/>
      <point x="59" y="486.0" type="line" smooth="yes"/>
      <point x="110" y="482"/>
      <point x="130.0" y="465.0"/>
      <point x="130.0" y="429" type="curve" smooth="yes"/>
      <point x="130.0" y="76" type="line" smooth="yes"/>
      <point x="130.0" y="38"/>
      <point x="94" y="30.0"/>
      <point x="47" y="30.0" type="curve" smooth="yes"/>
      <point x="31" y="30" type="line"/>
    </contour>
    <contour>
      <point x="688" y="0" type="line"/>
      <point x="688" y="30" type="line"/>
      <point x="674" y="30.0" type="line" smooth="yes"/>
      <point x="638.0" y="30"/>
      <point x="598.0" y="34.0"/>
      <point x="598.0" y="44" type="curve" smooth="yes"/>
      <point x="598" y="395" type="line"/>
      <point x="584.0" y="480.0"/>
      <point x="522" y="528"/>
      <point x="427.0" y="528.0" type="curve" smooth="yes"/>
      <point x="340" y="528"/>
      <point x="266" y="484"/>
      <point x="208" y="410" type="curve"/>
      <point x="208" y="370" type="line"/>
      <point x="269" y="448"/>
      <point x="334" y="488"/>
      <point x="405.0" y="488.0" type="curve" smooth="yes"/>
      <point x="466" y="488"/>
      <point x="504" y="459"/>
      <point x="504" y="367" type="curve" smooth="yes"/>
      <point x="504.0" y="44.0" type="line" smooth="yes"/>
      <point x="504" y="34"/>
      <point x="453" y="30"/>
      <point x="423" y="30.0" type="curve" smooth="yes"/>
      <point x="409" y="30" type="line"/>
      <point x="409" y="0" type="line"/>
    </contour>
    <contour>
      <point x="1071" y="0" type="line"/>
      <point x="1071" y="30" type="line"/>
      <point x="1054" y="30.0" type="line" smooth="yes"/>
      <point x="1007" y="30"/>
      <point x="972" y="38"/>
      <point x="972.0" y="76" type="curve" smooth="yes"/>
      <point x="972" y="369" type="line" smooth="yes"/>
      <point x="972" y="475"/>
      <point x="896" y="528"/>
      <point x="801.0" y="528.0" type="curve" smooth="yes"/>
      <point x="714" y="528"/>
      <point x="640" y="484"/>
      <point x="582" y="410" type="curve"/>
      <point x="582" y="370" type="line"/>
      <point x="643" y="448"/>
      <point x="708" y="488"/>
      <point x="779.0" y="488.0" type="curve" smooth="yes"/>
      <point x="840" y="488"/>
      <point x="878" y="459"/>
      <point x="878" y="367" type="curve" smooth="yes"/>
      <point x="878.0" y="44.0" type="line" smooth="yes"/>
      <point x="878" y="34"/>
      <point x="827" y="30"/>
      <point x="797" y="30.0" type="curve" smooth="yes"/>
      <point x="783" y="30" type="line"/>
      <point x="783" y="0" type="line"/>
    </contour>
  </outline>
</glyph>
<glyph name="o" format="2">
  <advance width="732"/>
  <unicode hex="006F"/>
  <outline>
    <contour>
      <point x="366" y="-10" type="curve" smooth="yes"/>
      <point x="557" y="-10"/>
      <point x="687" y="113"/>
      <point x="687" y="258" type="curve" smooth="yes"/>
      <point x="687" y="403"/>
      <point x="557" y="528"/>
      <point x="366" y="528" type="curve" smooth="yes"/>
      <point x="175" y="528"/>
      <point x="45" y="402"/>
      <point x="45" y="258" type="curve" smooth="yes"/>
      <point x="45" y="114"/>
      <point x="175" y="-10"/>
    </contour>
    <contour>
      <point x="366" y="20" type="curve" smooth="yes"/>
      <point x="218" y="20"/>
      <point x="145" y="119"/>
      <point x="145" y="258" type="curve" smooth="yes"/>
      <point x="145" y="397"/>
      <point x="218" y="498"/>
      <point x="366" y="498" type="curve" smooth="yes"/>
      <point x="514" y="498"/>
      <point x="588" y="398"/>
      <point x="588" y="258" type="curve" smooth="yes"/>
      <point x="588" y="118"/>
      <point x="514" y="20"/>
    </contour>
  </outline>
</glyph>
<glyph name="v" format="2">
  <advance width="661"/>
  <unicode hex="0076"/>
  <guideline x="173" y="482" angle="294.38774572763816" identifier="z9tGE2oIz4"/>
  <guideline x="532" y="466" angle="245.62353138332523" identifier="hvVSAlotwQ"/>
  <outline>
    <contour>
      <point x="532" y="466" type="curve"/>
      <point x="343" y="46" type="line"/>
      <point x="370" y="47" type="line"/>
      <point x="173" y="482" type="line"/>
      <point x="173" y="489"/>
      <point x="230" y="491"/>
      <point x="274" y="491" type="curve" smooth="yes"/>
      <point x="276" y="491" type="line"/>
      <point x="276" y="518" type="line"/>
      <point x="10" y="518" type="line"/>
      <point x="10" y="491" type="line"/>
      <point x="14" y="491" type="line" smooth="yes"/>
      <point x="52" y="491"/>
      <point x="77" y="489"/>
      <point x="90" y="461" type="curve" smooth="yes"/>
      <point x="299" y="0" type="line"/>
      <point x="362" y="0" type="line"/>
      <point x="565" y="448" type="line" smooth="yes"/>
      <point x="579" y="478"/>
      <point x="606" y="491"/>
      <point x="643" y="491" type="curve" smooth="yes"/>
      <point x="651" y="491" type="line"/>
      <point x="651" y="518" type="line"/>
      <point x="443" y="518" type="line"/>
      <point x="443" y="491" type="line"/>
      <point x="446" y="491" type="line" smooth="yes"/>
      <point x="488" y="491"/>
      <point x="532" y="481"/>
    </contour>
  </outline>
</glyph>
<glyph name="w" format="2">
  <advance width="940"/>
  <unicode hex="0077"/>
  <guideline x="158" y="479" angle="291.1471275412283" identifier="fGGTaXFl4D"/>
  <guideline x="615" y="545" angle="291.7148927087509" identifier="Ism8DiFEL0"/>
  <guideline x="444" y="542" angle="68.6529659464971" identifier="Qu2ZNwNlKj"/>
  <guideline x="856" y="467" angle="69.61384540041917" identifier="l98CRo74qx"/>
  <guideline x="313" y="86" angle="0" identifier="Yikr83i4qv"/>
  <outline>
    <contour>
      <point x="479" y="458" type="line"/>
      <point x="296" y="0" type="line"/>
      <point x="233" y="0" type="line"/>
      <point x="73" y="455" type="line" smooth="yes"/>
      <point x="63" y="482"/>
      <point x="45" y="488"/>
      <point x="16" y="488" type="curve" smooth="yes"/>
      <point x="10" y="488" type="line"/>
      <point x="10" y="518" type="line"/>
      <point x="252" y="518" type="line"/>
      <point x="252" y="488" type="line"/>
      <point x="239" y="488" type="line" smooth="yes"/>
      <point x="196" y="488"/>
      <point x="155" y="486"/>
      <point x="158" y="479" type="curve" smooth="yes"/>
      <point x="309" y="48" type="line"/>
      <point x="280" y="48" type="line"/>
      <point x="469" y="518" type="line"/>
      <point x="532" y="518" type="line"/>
      <point x="719" y="47" type="line"/>
      <point x="690" y="45" type="line"/>
      <point x="837" y="467" type="line" smooth="yes"/>
      <point x="841" y="479"/>
      <point x="803" y="488"/>
      <point x="756" y="488" type="curve" smooth="yes"/>
      <point x="743" y="488" type="line"/>
      <point x="743" y="518" type="line"/>
      <point x="930" y="518" type="line"/>
      <point x="930" y="488" type="line"/>
      <point x="924" y="488" type="line" smooth="yes"/>
      <point x="891" y="488"/>
      <point x="876" y="481"/>
      <point x="863" y="444" type="curve" smooth="yes"/>
      <point x="707" y="0" type="line"/>
      <point x="644" y="0" type="line"/>
      <point x="460" y="457" type="line"/>
    </contour>
  </outline>
</glyph>
<glyph name="x" format="2">
  <advance width="626"/>
  <unicode hex="0078"/>
  <outline>
    <contour>
      <point x="616" y="0" type="line"/>
      <point x="616" y="30" type="line"/>
      <point x="610" y="30" type="line"/>
      <point x="578" y="30"/>
      <point x="562" y="34"/>
      <point x="540" y="60" type="curve"/>
      <point x="349" y="299" type="line"/>
      <point x="345" y="302" type="line"/>
      <point x="209" y="476" type="line"/>
      <point x="209" y="486"/>
      <point x="247" y="488"/>
      <point x="288" y="488" type="curve" smooth="yes"/>
      <point x="294" y="488" type="line"/>
      <point x="294" y="518" type="line"/>
      <point x="35" y="518" type="line"/>
      <point x="35" y="488" type="line"/>
      <point x="41" y="488" type="line"/>
      <point x="73" y="488"/>
      <point x="88" y="482"/>
      <point x="111" y="458" type="curve"/>
      <point x="275" y="252" type="line"/>
      <point x="279" y="249" type="line"/>
      <point x="442" y="42" type="line"/>
      <point x="442" y="32"/>
      <point x="404" y="30"/>
      <point x="363" y="30" type="curve" smooth="yes"/>
      <point x="357" y="30" type="line"/>
      <point x="357" y="0" type="line"/>
    </contour>
    <contour>
      <point x="10" y="0" type="line"/>
      <point x="206" y="0" type="line"/>
      <point x="206" y="30" type="line"/>
      <point x="201" y="30" type="line" smooth="yes"/>
      <point x="156" y="30"/>
      <point x="125" y="36"/>
      <point x="125" y="53" type="curve"/>
      <point x="301" y="255" type="line"/>
      <point x="291" y="286" type="line"/>
      <point x="105" y="74" type="line" smooth="yes"/>
      <point x="77" y="42"/>
      <point x="57" y="30"/>
      <point x="16" y="30" type="curve"/>
      <point x="10" y="30" type="line"/>
    </contour>
    <contour>
      <point x="333" y="263" type="line"/>
      <point x="496" y="444" type="line" smooth="yes"/>
      <point x="525" y="476"/>
      <point x="544" y="488"/>
      <point x="585" y="488" type="curve"/>
      <point x="591" y="488" type="line"/>
      <point x="591" y="518" type="line"/>
      <point x="395" y="518" type="line"/>
      <point x="395" y="488" type="line"/>
      <point x="400" y="488" type="line" smooth="yes"/>
      <point x="445" y="488"/>
      <point x="476" y="482"/>
      <point x="476" y="465" type="curve"/>
      <point x="323" y="294" type="line"/>
    </contour>
  </outline>
</glyph>
<glyph name="y" format="2">
  <advance width="661"/>
  <unicode hex="0079"/>
  <guideline x="173" y="482" angle="296.37765763590266" identifier="3fhgBh2K8w"/>
  <guideline x="533" y="466" angle="246.5492844711938" identifier="jtaRVGhSR2"/>
  <guideline x="10" y="518" angle="90" identifier="L3BBnLkTda"/>
  <outline>
    <contour>
      <point x="333" y="-29" type="line"/>
      <point x="369" y="31" type="line"/>
      <point x="383" y="55" type="line"/>
      <point x="173" y="482" type="line"/>
      <point x="173" y="489"/>
      <point x="230" y="491"/>
      <point x="274" y="491" type="curve" smooth="yes"/>
      <point x="276" y="491" type="line"/>
      <point x="276" y="518" type="line"/>
      <point x="10" y="518" type="line"/>
      <point x="10" y="491" type="line"/>
      <point x="14" y="491" type="line"/>
      <point x="54" y="491"/>
      <point x="76" y="488"/>
      <point x="90" y="461" type="curve" smooth="yes"/>
    </contour>
    <contour>
      <point x="126" y="-232" type="curve" smooth="yes"/>
      <point x="228" y="-232"/>
      <point x="293" y="-179"/>
      <point x="375" y="10" type="curve" smooth="yes"/>
      <point x="565" y="448" type="line" smooth="yes"/>
      <point x="579" y="479"/>
      <point x="606" y="491"/>
      <point x="643" y="491" type="curve"/>
      <point x="651" y="491" type="line"/>
      <point x="651" y="518" type="line"/>
      <point x="445" y="518" type="line"/>
      <point x="445" y="491" type="line"/>
      <point x="448" y="491" type="line" smooth="yes"/>
      <point x="491" y="491"/>
      <point x="532" y="481"/>
      <point x="532" y="466" type="curve"/>
      <point x="360" y="63" type="line"/>
      <point x="350" y="34" type="line"/>
      <point x="274" y="-138"/>
      <point x="233" y="-161"/>
      <point x="145" y="-161" type="curve" smooth="yes"/>
      <point x="63" y="-161"/>
      <point x="42" y="-143"/>
      <point x="34" y="-140" type="curve"/>
      <point x="34" y="-213" type="line"/>
      <point x="49" y="-222"/>
      <point x="82" y="-232"/>
    </contour>
  </outline>
</glyph>
<glyph name="brokenbar" format="2">
  <advance width="288"/>
  <unicode hex="00A6"/>
  <outline>
    <contour>
      <point x="121" y="750" type="line"/>
      <point x="121" y="380" type="line"/>
      <point x="168" y="380" type="line"/>
      <point x="168" y="750" type="line"/>
    </contour>
    <contour>
      <point x="121" y="242" type="line"/>
      <point x="121" y="-128" type="line"/>
      <point x="168" y="-128" type="line"/>
      <point x="168" y="242" type="line"/>
    </contour>
  </outline>
</glyph>
<glyph name="section" format="2">
  <advance width="783"/>
  <unicode hex="00A7"/>
  <outline>
    <contour>
      <point x="357" y="422" type="curve"/>
      <point x="204" y="422"/>
      <point x="66" y="380"/>
      <point x="66" y="278" type="curve" smooth="yes"/>
      <point x="66" y="172"/>
      <point x="195" y="128"/>
      <point x="322" y="85" type="curve" smooth="yes"/>
      <point x="449" y="41"/>
      <point x="565" y="16"/>
      <point x="565" y="-76" type="curve" smooth="yes"/>
      <point x="565" y="-156"/>
      <point x="492" y="-206"/>
      <point x="374" y="-206" type="curve" smooth="yes"/>
      <point x="270" y="-206"/>
      <point x="203" y="-180"/>
      <point x="154" y="-129" type="curve"/>
      <point x="147" y="-130"/>
      <point x="168" y="-172"/>
      <point x="205" y="-197" type="curve"/>
      <point x="205" y="-61" type="line"/>
      <point x="103" y="-61" type="line"/>
      <point x="103" y="-167" type="line"/>
      <point x="155" y="-202"/>
      <point x="249" y="-236"/>
      <point x="379" y="-236" type="curve" smooth="yes"/>
      <point x="530" y="-236"/>
      <point x="648" y="-167"/>
      <point x="648" y="-59" type="curve" smooth="yes"/>
      <point x="648" y="59"/>
      <point x="518" y="102"/>
      <point x="382" y="148" type="curve" smooth="yes"/>
      <point x="260" y="190"/>
      <point x="148" y="212"/>
      <point x="148" y="294" type="curve" smooth="yes"/>
      <point x="148" y="366"/>
      <point x="234" y="399"/>
      <point x="376" y="401" type="curve"/>
      <point x="386" y="402"/>
      <point x="360" y="418"/>
    </contour>
    <contour>
      <point x="486" y="69" type="curve"/>
      <point x="625" y="88"/>
      <point x="721" y="131"/>
      <point x="721" y="225" type="curve" smooth="yes"/>
      <point x="721" y="331"/>
      <point x="590" y="373"/>
      <point x="452" y="419" type="curve" smooth="yes"/>
      <point x="334" y="458"/>
      <point x="223" y="484"/>
      <point x="223" y="572" type="curve" smooth="yes"/>
      <point x="223" y="644"/>
      <point x="287" y="690"/>
      <point x="409" y="690" type="curve" smooth="yes"/>
      <point x="505" y="690"/>
      <point x="562" y="656"/>
      <point x="597" y="612" type="curve"/>
      <point x="604" y="639"/>
      <point x="574" y="667"/>
      <point x="541" y="670" type="curve"/>
      <point x="541" y="563" type="line"/>
      <point x="639" y="563" type="line"/>
      <point x="639" y="657" type="line"/>
      <point x="606" y="684"/>
      <point x="522" y="720"/>
      <point x="405" y="720" type="curve" smooth="yes"/>
      <point x="251" y="720"/>
      <point x="140" y="656"/>
      <point x="140" y="559" type="curve" smooth="yes"/>
      <point x="140" y="442"/>
      <point x="267" y="398"/>
      <point x="394" y="355" type="curve" smooth="yes"/>
      <point x="522" y="313"/>
      <point x="639" y="281"/>
      <point x="639" y="205" type="curve" smooth="yes"/>
      <point x="639" y="143"/>
      <point x="580" y="113"/>
      <point x="472" y="96" type="curve"/>
      <point x="464" y="86"/>
      <point x="471" y="75"/>
    </contour>
  </outline>
</glyph>
<glyph name="ordmasculine" format="2">
  <advance width="604"/>
  <unicode hex="00BA"/>
  <outline>
    <contour>
      <point x="302" y="720" type="curve" smooth="yes"/>
      <point x="155" y="720"/>
      <point x="50" y="637"/>
      <point x="50" y="516" type="curve" smooth="yes"/>
      <point x="50" y="394"/>
      <point x="155" y="312"/>
      <point x="302" y="312" type="curve" smooth="yes"/>
      <point x="449" y="312"/>
      <point x="554" y="394"/>
      <point x="554" y="516" type="curve" smooth="yes"/>
      <point x="554" y="637"/>
      <point x="449" y="720"/>
    </contour>
    <contour>
      <point x="302" y="340" type="curve" smooth="yes"/>
      <point x="207" y="340"/>
      <point x="143" y="399"/>
      <point x="143" y="516" type="curve" smooth="yes"/>
      <point x="143" y="631"/>
      <point x="207" y="692"/>
      <point x="302" y="692" type="curve" smooth="yes"/>
      <point x="398" y="692"/>
      <point x="461" y="631"/>
      <point x="461" y="516" type="curve" smooth="yes"/>
      <point x="461" y="399"/>
      <point x="398" y="340"/>
    </contour>
  </outline>
</glyph>
<glyph name="oslash" format="2">
  <advance width="730"/>
  <unicode hex="00F8"/>
  <anchor x="371" y="551.0" name="top"/>
  <outline>
    <contour>
      <point x="686" y="522" type="line"/>
      <point x="-9" y="-15" type="line"/>
      <point x="46" y="-15" type="line"/>
      <point x="741" y="522" type="line"/>
    </contour>
    <contour>
      <point x="366" y="-12" type="curve"/>
      <point x="552" y="-12"/>
      <point x="687" y="97"/>
      <point x="687" y="256" type="curve" smooth="yes"/>
      <point x="687" y="415"/>
      <point x="552" y="526"/>
      <point x="366" y="526" type="curve" smooth="yes"/>
      <point x="181" y="526"/>
      <point x="45" y="415"/>
      <point x="45" y="256" type="curve" smooth="yes"/>
      <point x="45" y="97"/>
      <point x="181" y="-12"/>
    </contour>
    <contour>
      <point x="366" y="20" type="curve"/>
      <point x="222" y="20"/>
      <point x="145" y="97"/>
      <point x="145" y="256" type="curve" smooth="yes"/>
      <point x="145" y="397"/>
      <point x="223" y="494"/>
      <point x="366" y="494" type="curve" smooth="yes"/>
      <point x="511" y="494"/>
      <point x="588" y="416"/>
      <point x="588" y="256" type="curve" smooth="yes"/>
      <point x="588" y="115"/>
      <point x="510" y="20"/>
    </contour>
  </outline>
</glyph>
<glyph name="dcroat" format="2">
  <advance width="774"/>
  <unicode hex="0111"/>
  <outline>
    <contour>
      <point x="783" y="633" type="line"/>
      <point x="314" y="633" type="line"/>
      <point x="314" y="601" type="line"/>
      <point x="783" y="601" type="line"/>
    </contour>
    <contour>
      <point x="344" y="526" type="curve" smooth="yes"/>
      <point x="168" y="526"/>
      <point x="44" y="414"/>
      <point x="44" y="253" type="curve" smooth="yes"/>
      <point x="44" y="95"/>
      <point x="164" y="-11"/>
      <point x="330" y="-11" type="curve" smooth="yes"/>
      <point x="466" y="-11"/>
      <point x="541" y="52"/>
      <point x="619" y="175" type="curve"/>
      <point x="612" y="177"/>
      <point x="606" y="187"/>
      <point x="594" y="190" type="curve"/>
      <point x="532" y="87"/>
      <point x="461" y="25"/>
      <point x="345" y="25" type="curve" smooth="yes"/>
      <point x="213" y="25"/>
      <point x="143" y="114"/>
      <point x="143" y="253" type="curve" smooth="yes"/>
      <point x="143" y="396"/>
      <point x="217" y="490"/>
      <point x="356" y="490" type="curve" smooth="yes"/>
      <point x="461" y="490"/>
      <point x="535" y="441"/>
      <point x="591" y="339" type="curve"/>
      <point x="592" y="340"/>
      <point x="613" y="351"/>
      <point x="619" y="352" type="curve"/>
      <point x="546" y="474"/>
      <point x="472" y="526"/>
    </contour>
    <contour>
      <point x="561" y="747" type="line"/>
      <point x="561" y="116" type="line"/>
      <point x="565" y="122" type="line"/>
      <point x="565" y="0" type="line"/>
      <point x="757" y="0" type="line"/>
      <point x="757" y="29" type="line"/>
      <point x="754" y="29" type="line"/>
      <point x="697" y="29"/>
      <point x="654" y="36"/>
      <point x="654" y="65" type="curve" smooth="yes"/>
      <point x="654" y="747" type="line"/>
    </contour>
  </outline>
</glyph>
<glyph name="Ldot" format="2">
  <advance width="719"/>
  <unicode hex="013F"/>
  <outline>
    <contour>
      <point x="155" y="644" type="curve" smooth="yes"/>
      <point x="155" y="667"/>
      <point x="121" y="557"/>
      <point x="85" y="557" type="curve" smooth="yes"/>
      <point x="85" y="551"/>
      <point x="66" y="550"/>
      <point x="47" y="550" type="curve" smooth="yes"/>
      <point x="43" y="574" type="line"/>
      <point x="277" y="568" type="line"/>
      <point x="460" y="544" type="line"/>
      <point x="452" y="583" type="line"/>
      <point x="422" y="583"/>
      <point x="374" y="581"/>
      <point x="374" y="575" type="curve"/>
      <point x="370" y="43" type="line" smooth="yes"/>
      <point x="369" y="35"/>
      <point x="482" y="34"/>
      <point x="449" y="34" type="curve" smooth="yes"/>
      <point x="525" y="34"/>
      <point x="484" y="45"/>
      <point x="490" y="81" type="curve"/>
      <point x="507" y="307" type="line" smooth="yes"/>
      <point x="507" y="313"/>
      <point x="551" y="314"/>
      <point x="571" y="314" type="curve" smooth="yes"/>
      <point x="575" y="136" type="line"/>
      <point x="132" y="142" type="line"/>
      <point x="43" y="166" type="line"/>
      <point x="48" y="160" type="line"/>
      <point x="86" y="160"/>
      <point x="123" y="166"/>
      <point x="123" y="189" type="curve" smooth="yes"/>
      <point x="142" y="189"/>
      <point x="155" y="650"/>
    </contour>
    <component base="periodcentered" xOffset="418" yOffset="49"/>
  </outline>
</glyph>
<glyph name="Oogonek" format="2">
  <advance width="963"/>
  <unicode hex="01EA"/>
  <outline>
    <contour>
      <point x="481" y="25" type="curve" smooth="yes"/>
      <point x="290" y="25"/>
      <point x="154" y="152"/>
      <point x="154" y="355" type="curve" smooth="yes"/>
      <point x="154" y="558"/>
      <point x="290" y="685"/>
      <point x="481" y="685" type="curve" smooth="yes"/>
      <point x="673" y="685"/>
      <point x="809" y="558"/>
      <point x="809" y="355" type="curve" smooth="yes"/>
      <point x="809" y="152"/>
      <point x="673" y="25"/>
    </contour>
    <contour>
      <point x="583" y="-225" type="curve"/>
      <point x="629" y="-225"/>
      <point x="646" y="-206"/>
      <point x="667" y="-184" type="curve"/>
      <point x="659" y="-189"/>
      <point x="637" y="-177"/>
      <point x="624" y="-177" type="curve" smooth="yes"/>
      <point x="596" y="-191"/>
      <point x="568" y="-198"/>
      <point x="545" y="-190" type="curve" smooth="yes"/>
      <point x="519" y="-175"/>
      <point x="526" y="-154"/>
      <point x="566" y="-109" type="curve" smooth="yes"/>
      <point x="601" y="-54"/>
      <point x="649" y="7"/>
      <point x="772" y="107" type="curve" smooth="yes"/>
      <point x="870" y="207"/>
      <point x="860" y="327"/>
      <point x="790" y="428" type="curve" smooth="yes"/>
      <point x="720" y="602"/>
      <point x="529" y="690"/>
      <point x="357" y="647" type="curve" smooth="yes"/>
      <point x="186" y="604"/>
      <point x="103" y="456"/>
      <point x="173" y="282" type="curve" smooth="yes"/>
      <point x="186" y="109"/>
      <point x="336" y="-9"/>
      <point x="519" y="-7" type="curve"/>
      <point x="579" y="-7"/>
      <point x="621" y="15"/>
      <point x="657" y="29" type="curve"/>
      <point x="629" y="20"/>
      <point x="592" y="13"/>
      <point x="592" y="-2" type="curve" smooth="yes"/>
      <point x="504" y="-52"/>
      <point x="429" y="-113"/>
      <point x="448" y="-167" type="curve" smooth="yes"/>
      <point x="465" y="-210"/>
      <point x="517" y="-231"/>
    </contour>
  </outline>
</glyph>
<glyph name="breve" format="2">
  <advance width="620"/>
  <unicode hex="02D8"/>
  <anchor x="311" y="521.0" name="_top"/>
  <outline>
    <contour>
      <point x="311" y="590" type="curve" smooth="yes"/>
      <point x="218" y="590"/>
      <point x="153" y="639"/>
      <point x="147" y="744" type="curve"/>
      <point x="183" y="744" type="line"/>
      <point x="196" y="680"/>
      <point x="240" y="651"/>
      <point x="314" y="651" type="curve" smooth="yes"/>
      <point x="386" y="651"/>
      <point x="428" y="680"/>
      <point x="441" y="744" type="curve"/>
      <point x="475" y="744" type="line"/>
      <point x="469" y="639"/>
      <point x="403" y="590"/>
    </contour>
  </outline>
</glyph>
<glyph name="dotaccent" format="2">
  <advance width="620"/>
  <unicode hex="02D9"/>
  <anchor x="310.0" y="526.0" name="_top"/>
  <outline>
    <contour>
      <point x="310" y="645" type="curve" smooth="yes"/>
      <point x="350" y="645"/>
      <point x="379" y="666"/>
      <point x="379" y="702" type="curve" smooth="yes"/>
      <point x="379" y="737"/>
      <point x="350" y="758"/>
      <point x="310" y="758" type="curve" smooth="yes"/>
      <point x="270" y="758"/>
      <point x="241" y="737"/>
      <point x="241" y="702" type="curve" smooth="yes"/>
      <point x="241" y="666"/>
      <point x="270" y="645"/>
    </contour>
  </outline>
</glyph>
<glyph name="emdash" format="2">
  <advance width="1176"/>
  <unicode hex="2014"/>
  <outline>
    <contour>
      <point x="90" y="335" type="line"/>
      <point x="90" y="299" type="line"/>
      <point x="1086" y="299" type="line"/>
      <point x="1086" y="335" type="line"/>
    </contour>
  </outline>
</glyph>
<glyph name="quoteright" format="2">
  <advance width="216"/>
  <unicode hex="2019"/>
  <outline>
    <contour>
      <point x="95" y="503" type="line"/>
      <point x="137" y="538"/>
      <point x="176" y="586"/>
      <point x="176" y="648" type="curve" smooth="yes"/>
      <point x="176" y="698"/>
      <point x="149" y="720"/>
      <point x="110" y="720" type="curve" smooth="yes"/>
      <point x="72" y="720"/>
      <point x="50" y="699"/>
      <point x="50" y="667" type="curve" smooth="yes"/>
      <point x="50" y="635"/>
      <point x="73" y="616"/>
      <point x="106" y="616" type="curve" smooth="yes"/>
      <point x="135" y="616"/>
      <point x="149" y="622"/>
      <point x="160" y="644" type="curve"/>
      <point x="147" y="642" type="line"/>
      <point x="141" y="594"/>
      <point x="111" y="568"/>
      <point x="59" y="535" type="curve"/>
    </contour>
  </outline>
</glyph>
<glyph name="perthousand" format="2">
  <advance width="1403"/>
  <unicode hex="2030"/>
  <outline>
    <contour>
      <point x="236" y="408" type="curve" smooth="yes"/>
      <point x="168" y="408"/>
      <point x="125" y="456"/>
      <point x="125" y="551" type="curve" smooth="yes"/>
      <point x="125" y="646"/>
      <point x="168" y="694"/>
      <point x="236" y="694" type="curve" smooth="yes"/>
      <point x="305" y="694"/>
      <point x="347" y="646"/>
      <point x="347" y="551" type="curve" smooth="yes"/>
      <point x="347" y="456"/>
      <point x="305" y="408"/>
    </contour>
    <contour>
      <point x="236" y="382" type="curve" smooth="yes"/>
      <point x="351" y="382"/>
      <point x="432" y="454"/>
      <point x="432" y="551" type="curve" smooth="yes"/>
      <point x="432" y="649"/>
      <point x="351" y="720"/>
      <point x="236" y="720" type="curve" smooth="yes"/>
      <point x="122" y="720"/>
      <point x="40" y="648"/>
      <point x="40" y="551" type="curve" smooth="yes"/>
      <point x="40" y="453"/>
      <point x="122" y="382"/>
    </contour>
    <contour>
      <point x="120" y="0" type="line"/>
      <point x="872" y="710" type="line"/>
      <point x="822" y="710" type="line"/>
      <point x="69" y="0" type="line"/>
    </contour>
    <contour>
      <point x="703" y="16" type="curve" smooth="yes"/>
      <point x="634" y="16"/>
      <point x="592" y="64"/>
      <point x="592" y="159" type="curve" smooth="yes"/>
      <point x="592" y="254"/>
      <point x="634" y="302"/>
      <point x="703" y="302" type="curve" smooth="yes"/>
      <point x="772" y="302"/>
      <point x="814" y="254"/>
      <point x="814" y="159" type="curve" smooth="yes"/>
      <point x="814" y="64"/>
      <point x="772" y="16"/>
    </contour>
    <contour>
      <point x="703" y="-10" type="curve" smooth="yes"/>
      <point x="817" y="-10"/>
      <point x="898" y="62"/>
      <point x="898" y="159" type="curve" smooth="yes"/>
      <point x="898" y="257"/>
      <point x="817" y="328"/>
      <point x="703" y="328" type="curve" smooth="yes"/>
      <point x="589" y="328"/>
      <point x="507" y="256"/>
      <point x="507" y="159" type="curve" smooth="yes"/>
      <point x="507" y="61"/>
      <point x="589" y="-10"/>
    </contour>
    <contour>
      <point x="1169" y="16" type="curve" smooth="yes"/>
      <point x="1100" y="16"/>
      <point x="1058" y="64"/>
      <point x="1058" y="159" type="curve" smooth="yes"/>
      <point x="1058" y="254"/>
      <point x="1100" y="302"/>
      <point x="1169" y="302" type="curve" smooth="yes"/>
      <point x="1238" y="302"/>
      <point x="1281" y="254"/>
      <point x="1281" y="159" type="curve" smooth="yes"/>
      <point x="1281" y="64"/>
      <point x="1238" y="16"/>
    </contour>
    <contour>
      <point x="1169" y="-10" type="curve" smooth="yes"/>
      <point x="1283" y="-10"/>
      <point x="1365" y="62"/>
      <point x="1365" y="159" type="curve" smooth="yes"/>
      <point x="1365" y="257"/>
      <point x="1283" y="328"/>
      <point x="1169" y="328" type="curve" smooth="yes"/>
      <point x="1055" y="328"/>
      <point x="974" y="256"/>
      <point x="974" y="159" type="curve" smooth="yes"/>
      <point x="974" y="61"/>
      <point x="1055" y="-10"/>
    </contour>
  </outline>
</glyph>
<glyph name="cedi" format="2">
  <advance width="695"/>
  <unicode hex="20B5"/>
  <outline>
    <contour>
      <point x="402" y="700" type="curve" smooth="yes"/>
      <point x="172" y="700"/>
      <point x="29" y="570"/>
      <point x="29" y="355" type="curve" smooth="yes"/>
      <point x="29" y="142"/>
      <point x="172" y="10"/>
      <point x="381" y="10" type="curve" smooth="yes"/>
      <point x="542" y="10"/>
      <point x="633" y="93"/>
      <point x="672" y="227" type="curve"/>
      <point x="635" y="241" type="line"/>
      <point x="600" y="117"/>
      <point x="526" y="42"/>
      <point x="386" y="42" type="curve" smooth="yes"/>
      <point x="227" y="42"/>
      <point x="131" y="157"/>
      <point x="131" y="355" type="curve" smooth="yes"/>
      <point x="131" y="559"/>
      <point x="224" y="670"/>
      <point x="402" y="670" type="curve" smooth="yes"/>
      <point x="511" y="670"/>
      <point x="572" y="631"/>
      <point x="601" y="596" type="curve"/>
      <point x="613" y="608"/>
      <point x="588" y="650"/>
      <point x="551" y="656" type="curve"/>
      <point x="551" y="535" type="line"/>
      <point x="651" y="535" type="line"/>
      <point x="651" y="635" type="line"/>
      <point x="618" y="659"/>
      <point x="525" y="700"/>
    </contour>
    <contour>
      <point x="352" y="790" type="line"/>
      <point x="352" y="686" type="line"/>
      <point x="352" y="678" type="line"/>
      <point x="352" y="36" type="line"/>
      <point x="352" y="23" type="line"/>
      <point x="352" y="-120" type="line"/>
      <point x="398" y="-120" type="line"/>
      <point x="398" y="23" type="line"/>
      <point x="398" y="30" type="line"/>
      <point x="398" y="680" type="line"/>
      <point x="398" y="688" type="line"/>
      <point x="398" y="790" type="line"/>
    </contour>
  </outline>
</glyph>
<glyph name="numero" format="2">
  <advance width="1507"/>
  <unicode hex="2116"/>
  <outline>
    <contour>
      <point x="998" y="236" type="line"/>
      <point x="1425" y="236" type="line"/>
      <point x="1425" y="202" type="line"/>
      <point x="998" y="202" type="line"/>
    </contour>
    <component base="N" xOffset="152"/>
    <component base="ordmasculine" xOffset="864"/>
  </outline>
</glyph>
<glyph name="partialdiff" format="2">
  <advance width="699"/>
  <unicode hex="2202"/>
  <outline>
    <contour>
      <point x="289" y="-10" type="curve" smooth="yes"/>
      <point x="496" y="-10"/>
      <point x="638" y="201"/>
      <point x="638" y="457" type="curve" smooth="yes"/>
      <point x="638" y="665"/>
      <point x="533" y="748"/>
      <point x="381" y="748" type="curve" smooth="yes"/>
      <point x="320" y="748"/>
      <point x="256" y="733"/>
      <point x="204" y="705" type="curve"/>
      <point x="223" y="680" type="line"/>
      <point x="263" y="701"/>
      <point x="314" y="716"/>
      <point x="374" y="716" type="curve" smooth="yes"/>
      <point x="472" y="716"/>
      <point x="546" y="667"/>
      <point x="546" y="489" type="curve" smooth="yes"/>
      <point x="546" y="249"/>
      <point x="458" y="21"/>
      <point x="289" y="21" type="curve" smooth="yes"/>
      <point x="200" y="21"/>
      <point x="157" y="82"/>
      <point x="157" y="212" type="curve" smooth="yes"/>
      <point x="157" y="370"/>
      <point x="266" y="494"/>
      <point x="407" y="494" type="curve" smooth="yes"/>
      <point x="491" y="494"/>
      <point x="549" y="464"/>
      <point x="591" y="416" type="curve"/>
      <point x="591" y="416"/>
      <point x="586" y="472"/>
      <point x="583" y="476" type="curve"/>
      <point x="554" y="495"/>
      <point x="499" y="526"/>
      <point x="408" y="526" type="curve" smooth="yes"/>
      <point x="222" y="526"/>
      <point x="61" y="373"/>
      <point x="61" y="202" type="curve" smooth="yes"/>
      <point x="61" y="83"/>
      <point x="142" y="-10"/>
    </contour>
  </outline>
</glyph>
<glyph name="Pcircle" format="2">
  <advance width="1049"/>
  <unicode hex="24C5"/>
  <outline>
    <contour>
      <point x="524" y="4" type="curve" smooth="yes"/>
      <point x="275" y="4"/>
      <point x="94" y="158"/>
      <point x="94" y="355" type="curve" smooth="yes"/>
      <point x="94" y="552"/>
      <point x="275" y="706"/>
      <point x="524" y="706" type="curve" smooth="yes"/>
      <point x="773" y="706"/>
      <point x="955" y="552"/>
      <point x="955" y="355" type="curve" smooth="yes"/>
      <point x="955" y="158"/>
      <point x="773" y="4"/>
    </contour>
    <contour>
      <point x="524" y="-28" type="curve" smooth="yes"/>
      <point x="797" y="-28"/>
      <point x="1005" y="138"/>
      <point x="1005" y="355" type="curve" smooth="yes"/>
      <point x="1005" y="572"/>
      <point x="797" y="738"/>
      <point x="524" y="738" type="curve" smooth="yes"/>
      <point x="253" y="738"/>
      <point x="44" y="572"/>
      <point x="44" y="355" type="curve" smooth="yes"/>
      <point x="44" y="138"/>
      <point x="253" y="-28"/>
    </contour>
    <contour>
      <point x="557" y="180" type="line"/>
      <point x="529" y="180" type="line" smooth="yes"/>
      <point x="505" y="180"/>
      <point x="474" y="181"/>
      <point x="474" y="185" type="curve" smooth="yes"/>
      <point x="474" y="308" type="line"/>
      <point x="560" y="308" type="line" smooth="yes"/>
      <point x="681" y="308"/>
      <point x="768" y="358"/>
      <point x="768" y="436" type="curve" smooth="yes"/>
      <point x="768" y="513"/>
      <point x="687" y="557"/>
      <point x="564" y="557" type="curve" smooth="yes"/>
      <point x="323" y="557" type="line"/>
      <point x="323" y="530" type="line"/>
      <point x="331" y="530" type="line" smooth="yes"/>
      <point x="366" y="530"/>
      <point x="392" y="526"/>
      <point x="392" y="510" type="curve" smooth="yes"/>
      <point x="392" y="200" type="line" smooth="yes"/>
      <point x="392" y="184"/>
      <point x="366" y="180"/>
      <point x="331" y="180" type="curve" smooth="yes"/>
      <point x="323" y="180" type="line"/>
      <point x="323" y="153" type="line"/>
      <point x="557" y="153" type="line"/>
    </contour>
    <contour>
      <point x="474" y="527" type="line"/>
      <point x="563" y="527" type="line" smooth="yes"/>
      <point x="642" y="527"/>
      <point x="683" y="501"/>
      <point x="683" y="436" type="curve" smooth="yes"/>
      <point x="683" y="371"/>
      <point x="642" y="338"/>
      <point x="559" y="338" type="curve" smooth="yes"/>
      <point x="474" y="338" type="line"/>
    </contour>
  </outline>
</glyph>
<glyph name="uni25B9" format="2">
  <advance width="712"/>
  <unicode hex="25B9"/>
  <outline>
    <contour>
      <point x="158" y="545" type="line"/>
      <point x="158" y="10" type="line"/>
      <point x="629" y="277" type="line"/>
    </contour>
    <contour>
      <point x="209" y="474" type="line"/>
      <point x="202" y="470" type="line"/>
      <point x="550" y="274" type="line"/>
      <point x="550" y="281" type="line"/>
      <point x="202" y="84" type="line"/>
      <point x="209" y="80" type="line"/>
    </contour>
  </outline>
</glyph>
<glyph name="uni25BE" format="2">
  <advance width="802"/>
  <unicode hex="25BE"/>
  <outline>
    <contour>
      <point x="63" y="464" type="line"/>
      <point x="401" y="91" type="line"/>
      <point x="738" y="464" type="line"/>
    </contour>
  </outline>
</glyph>
<glyph name="uni25BF" format="2">
  <advance width="777"/>
  <unicode hex="25BF"/>
  <outline>
    <contour>
      <point x="726" y="464" type="line"/>
      <point x="51" y="464" type="line"/>
      <point x="388" y="91" type="line"/>
    </contour>
    <contour>
      <point x="636" y="426" type="line"/>
      <point x="632" y="431" type="line"/>
      <point x="384" y="155" type="line"/>
      <point x="393" y="155" type="line"/>
      <point x="144" y="431" type="line"/>
      <point x="139" y="426" type="line"/>
    </contour>
  </outline>
</glyph>
<glyph name="heart" format="2">
  <advance width="1125"/>
  <unicode hex="2665"/>
  <outline>
    <contour>
      <point x="548" y="-10" type="line"/>
      <point x="249" y="273" type="line" smooth="yes"/>
      <point x="142" y="375"/>
      <point x="82" y="437"/>
      <point x="82" y="535" type="curve" smooth="yes"/>
      <point x="82" y="632"/>
      <point x="166" y="710"/>
      <point x="312" y="710" type="curve" smooth="yes"/>
      <point x="504" y="710"/>
      <point x="610" y="567"/>
      <point x="610" y="363" type="curve"/>
      <point x="516" y="363" type="line"/>
      <point x="516" y="567"/>
      <point x="622" y="710"/>
      <point x="813" y="710" type="curve" smooth="yes"/>
      <point x="960" y="710"/>
      <point x="1043" y="632"/>
      <point x="1043" y="535" type="curve" smooth="yes"/>
      <point x="1043" y="437"/>
      <point x="984" y="375"/>
      <point x="877" y="273" type="curve" smooth="yes"/>
      <point x="578" y="-10" type="line"/>
    </contour>
  </outline>
</glyph>
<glyph name="uni27F7" format="2">
  <advance width="1628"/>
  <unicode hex="27F7"/>
  <outline>
    <contour>
      <point x="1326" y="335" type="line"/>
      <point x="1176" y="192" type="line"/>
      <point x="1188" y="179" type="line"/>
      <point x="1564" y="346" type="line"/>
      <point x="1564" y="360" type="line"/>
      <point x="1188" y="527" type="line"/>
      <point x="1176" y="514" type="line"/>
      <point x="1326" y="371" type="line"/>
      <point x="302" y="371" type="line"/>
      <point x="452" y="514" type="line"/>
      <point x="440" y="527" type="line"/>
      <point x="63" y="360" type="line"/>
      <point x="63" y="346" type="line"/>
      <point x="440" y="179" type="line"/>
      <point x="452" y="192" type="line"/>
      <point x="302" y="335" type="line"/>
    </contour>
  </outline>
</glyph>
<glyph name="acute.ucpl" format="2">
  <advance width="619"/>
  <anchor x="232" y="694.0" name="_top"/>
  <outline>
    <contour>
      <point x="228" y="836" type="curve" smooth="yes"/>
      <point x="221" y="761" type="line"/>
      <point x="221" y="750" type="line"/>
      <point x="244" y="750" type="line"/>
      <point x="296" y="809" type="line" smooth="yes"/>
      <point x="319" y="837"/>
      <point x="332" y="858"/>
      <point x="332" y="876" type="curve" smooth="yes"/>
      <point x="332" y="898"/>
      <point x="314" y="912"/>
      <point x="288" y="912" type="curve" smooth="yes"/>
      <point x="253" y="912"/>
      <point x="233" y="892"/>
    </contour>
  </outline>
</glyph>
<glyph name="bar.uc" format="2">
  <advance width="288"/>
  <outline>
    <contour>
      <point x="121" y="749" type="line"/>
      <point x="121" y="-39" type="line"/>
      <point x="168" y="-39" type="line"/>
      <point x="168" y="749" type="line"/>
    </contour>
  </outline>
</glyph>
<glyph name="blackcircle" format="2">
  <advance width="736"/>
  <outline>
    <contour>
      <point x="368" y="80" type="curve" smooth="yes"/>
      <point x="527" y="80"/>
      <point x="653" y="177"/>
      <point x="653" y="304" type="curve" smooth="yes"/>
      <point x="653" y="431"/>
      <point x="527" y="528"/>
      <point x="368" y="528" type="curve" smooth="yes"/>
      <point x="209" y="528"/>
      <point x="82" y="431"/>
      <point x="82" y="304" type="curve" smooth="yes"/>
      <point x="82" y="177"/>
      <point x="209" y="80"/>
    </contour>
  </outline>
</glyph>
<glyph name="blackdiamond" format="2">
  <advance width="774"/>
  <outline>
    <contour>
      <point x="716" y="313" type="line"/>
      <point x="387" y="574" type="line"/>
      <point x="58" y="313" type="line"/>
      <point x="387" y="52" type="line"/>
    </contour>
  </outline>
</glyph>
<glyph name="breve.uc" format="2">
  <advance width="620"/>
  <anchor x="311" y="694.0" name="_top"/>
  <outline>
    <contour>
      <point x="311" y="759" type="curve" smooth="yes"/>
      <point x="209" y="759"/>
      <point x="146" y="808"/>
      <point x="137" y="897" type="curve"/>
      <point x="177" y="897" type="line"/>
      <point x="191" y="844"/>
      <point x="233" y="823"/>
      <point x="314" y="823" type="curve" smooth="yes"/>
      <point x="394" y="823"/>
      <point x="434" y="844"/>
      <point x="449" y="897" type="curve"/>
      <point x="483" y="897" type="line"/>
      <point x="474" y="808"/>
      <point x="412" y="759"/>
    </contour>
  </outline>
</glyph>
<glyph name="circumflex_acute.uc" format="2">
  <advance width="632"/>
  <anchor x="304" y="749.0" name="_top"/>
  <outline>
    <contour>
      <point x="537" y="948" type="curve" smooth="yes"/>
      <point x="471" y="862" type="line"/>
      <point x="471" y="848" type="line"/>
      <point x="491" y="848" type="line"/>
      <point x="589" y="894" type="line" smooth="yes"/>
      <point x="629" y="912"/>
      <point x="655" y="933"/>
      <point x="655" y="956" type="curve" smooth="yes"/>
      <point x="655" y="975"/>
      <point x="637" y="993"/>
      <point x="609" y="993" type="curve" smooth="yes"/>
      <point x="580" y="993"/>
      <point x="561" y="978"/>
    </contour>
    <component base="circumflex.uc" xOffset="77"/>
  </outline>
</glyph>
<glyph name="circumflex_grave" format="2">
  <advance width="632"/>
  <anchor x="303" y="564.0" name="_top"/>
  <outline>
    <contour>
      <point x="494" y="830" type="curve" smooth="yes"/>
      <point x="483" y="858"/>
      <point x="490" y="848"/>
      <point x="468" y="848" type="curve"/>
      <point x="446" y="848"/>
      <point x="431" y="831"/>
      <point x="431" y="814" type="curve"/>
      <point x="431" y="799"/>
      <point x="437" y="782"/>
      <point x="453" y="767" type="curve"/>
      <point x="497" y="718" type="line" smooth="yes"/>
      <point x="491" y="722"/>
      <point x="504" y="725"/>
      <point x="504" y="728" type="curve" smooth="yes"/>
      <point x="504" y="731"/>
      <point x="508" y="743"/>
      <point x="514" y="743" type="curve" smooth="yes"/>
      <point x="522" y="743"/>
      <point x="489" y="836"/>
    </contour>
    <component base="circumflex" xOffset="67"/>
  </outline>
</glyph>
<glyph name="f.alt.copy_1" format="2">
  <advance width="440"/>
  <outline>
    <contour>
      <point x="28" y="518" type="line"/>
      <point x="28" y="489" type="line"/>
      <point x="425" y="489" type="line"/>
      <point x="425" y="518" type="line"/>
    </contour>
    <contour>
      <point x="457" y="749" type="line"/>
      <point x="441" y="754"/>
      <point x="409" y="758"/>
      <point x="372" y="758" type="curve" smooth="yes"/>
      <point x="236" y="758"/>
      <point x="152" y="700"/>
      <point x="152" y="587" type="curve" smooth="yes"/>
      <point x="152" y="61" type="line" smooth="yes"/>
      <point x="152" y="33"/>
      <point x="110" y="27"/>
      <point x="40" y="27" type="curve" smooth="yes"/>
      <point x="30" y="27" type="line"/>
      <point x="30" y="0" type="line"/>
      <point x="378" y="0" type="line"/>
      <point x="378" y="27" type="line"/>
      <point x="368" y="27" type="line" smooth="yes"/>
      <point x="299" y="27"/>
      <point x="246" y="30"/>
      <point x="246" y="48" type="curve" smooth="yes"/>
      <point x="246" y="588" type="line" smooth="yes"/>
      <point x="246" y="689"/>
      <point x="283" y="728"/>
      <point x="373" y="728" type="curve" smooth="yes"/>
      <point x="412" y="728"/>
      <point x="439" y="721"/>
      <point x="457" y="717" type="curve"/>
    </contour>
  </outline>
</glyph>
<glyph name="f.alt" format="2">
  <advance width="440"/>
  <outline>
    <contour>
      <point x="26" y="518" type="line"/>
      <point x="26" y="488" type="line"/>
      <point x="413" y="488" type="line"/>
      <point x="413" y="518" type="line"/>
    </contour>
    <contour>
      <point x="376" y="0" type="line"/>
      <point x="376" y="30" type="line"/>
      <point x="348" y="30" type="line" smooth="yes"/>
      <point x="289" y="30"/>
      <point x="244" y="34"/>
      <point x="244" y="59" type="curve" smooth="yes"/>
      <point x="244" y="588" type="line" smooth="yes"/>
      <point x="244" y="689"/>
      <point x="268" y="730"/>
      <point x="366" y="730" type="curve" smooth="yes"/>
      <point x="404" y="730"/>
      <point x="461" y="724"/>
      <point x="492" y="693" type="curve"/>
      <point x="501" y="705"/>
      <point x="459" y="732"/>
      <point x="433" y="731" type="curve"/>
      <point x="433" y="624" type="line"/>
      <point x="520" y="624" type="line"/>
      <point x="520" y="719" type="line"/>
      <point x="498" y="732"/>
      <point x="453" y="758"/>
      <point x="365" y="758" type="curve" smooth="yes"/>
      <point x="234" y="758"/>
      <point x="150" y="700"/>
      <point x="150" y="587" type="curve" smooth="yes"/>
      <point x="150" y="78" type="line" smooth="yes"/>
      <point x="150" y="38"/>
      <point x="114" y="30"/>
      <point x="55" y="30" type="curve" smooth="yes"/>
      <point x="28" y="30" type="line"/>
      <point x="28" y="0" type="line"/>
    </contour>
  </outline>
</glyph>
<glyph name="f_h" format="2">
  <advance width="1212"/>
  <outline>
    <contour>
      <point x="32" y="516" type="line"/>
      <point x="32" y="485" type="line"/>
      <point x="432" y="485" type="line"/>
      <point x="432" y="516" type="line"/>
    </contour>
    <contour>
      <point x="647" y="0" type="line"/>
      <point x="952" y="0" type="line"/>
      <point x="952" y="29" type="line"/>
      <point x="946" y="29" type="line" smooth="yes"/>
      <point x="887" y="29"/>
      <point x="842" y="36"/>
      <point x="842" y="60" type="curve"/>
      <point x="842" y="413" type="line" smooth="yes"/>
      <point x="842" y="518"/>
      <point x="808" y="567"/>
      <point x="760" y="567" type="curve" smooth="yes"/>
      <point x="695" y="567"/>
      <point x="667" y="519"/>
      <point x="635" y="438" type="curve"/>
      <point x="652" y="426" type="line"/>
      <point x="682" y="498"/>
      <point x="704" y="543"/>
      <point x="738" y="543" type="curve" smooth="yes"/>
      <point x="747" y="543"/>
      <point x="748" y="507"/>
      <point x="748" y="413" type="curve" smooth="yes"/>
      <point x="748" y="45" type="line" smooth="yes"/>
      <point x="748" y="33"/>
      <point x="697" y="29"/>
      <point x="652" y="29" type="curve" smooth="yes"/>
      <point x="647" y="29" type="line"/>
    </contour>
    <contour>
      <point x="543" y="0" type="line"/>
      <point x="765" y="5" type="line"/>
      <point x="764" y="29" type="line" smooth="yes"/>
      <point x="753" y="29"/>
      <point x="737" y="30"/>
      <point x="737" y="31" type="curve"/>
      <point x="705" y="31"/>
      <point x="673" y="174"/>
      <point x="673" y="179" type="curve"/>
      <point x="638" y="747" type="line"/>
      <point x="510" y="741" type="line"/>
      <point x="580" y="579" type="line"/>
      <point x="580" y="578"/>
      <point x="563" y="58"/>
      <point x="552" y="58" type="curve" smooth="yes"/>
      <point x="552" y="35"/>
      <point x="522" y="29"/>
      <point x="469" y="29" type="curve"/>
      <point x="467" y="24" type="line"/>
    </contour>
    <contour>
      <point x="320" y="7" type="line" smooth="yes"/>
      <point x="320" y="6"/>
      <point x="550" y="5"/>
      <point x="540" y="5" type="curve" smooth="yes"/>
      <point x="539" y="29" type="line"/>
      <point x="534" y="24" type="line"/>
      <point x="490" y="24"/>
      <point x="532" y="26"/>
      <point x="532" y="43" type="curve"/>
      <point x="532" y="462" type="line"/>
      <point x="532" y="549"/>
      <point x="563" y="585"/>
      <point x="637" y="585" type="curve" smooth="yes"/>
      <point x="677" y="585"/>
      <point x="723" y="566"/>
      <point x="736" y="565" type="curve" smooth="yes"/>
      <point x="746" y="652" type="line" smooth="yes"/>
      <point x="732" y="683"/>
      <point x="640" y="710"/>
      <point x="550" y="710" type="curve" smooth="yes"/>
      <point x="403" y="710"/>
      <point x="308" y="649"/>
      <point x="285" y="530" type="curve"/>
      <point x="288" y="120" type="line"/>
      <point x="309" y="115"/>
      <point x="303" y="121"/>
      <point x="286" y="121" type="curve" smooth="yes"/>
      <point x="318" y="121"/>
      <point x="320" y="112"/>
      <point x="320" y="93" type="curve" smooth="yes"/>
    </contour>
  </outline>
</glyph>
<glyph name="florin.proportional" format="2">
  <advance width="673"/>
  <outline>
    <contour>
      <point x="171" y="500" type="line"/>
      <point x="166" y="468" type="line"/>
      <point x="612" y="468" type="line"/>
      <point x="618" y="500" type="line"/>
    </contour>
    <contour>
      <point x="312" y="67" type="curve" smooth="yes"/>
      <point x="403" y="579" type="line" smooth="yes"/>
      <point x="423" y="696"/>
      <point x="473" y="732"/>
      <point x="563" y="732" type="curve" smooth="yes"/>
      <point x="608" y="732"/>
      <point x="646" y="722"/>
      <point x="683" y="710" type="curve"/>
      <point x="688" y="745" type="line"/>
      <point x="655" y="757"/>
      <point x="607" y="764"/>
      <point x="560" y="764" type="curve" smooth="yes"/>
      <point x="421" y="764"/>
      <point x="332" y="707"/>
      <point x="311" y="585" type="curve" smooth="yes"/>
      <point x="220" y="56" type="line" smooth="yes"/>
      <point x="185" y="-146"/>
      <point x="127" y="-204"/>
      <point x="36" y="-204" type="curve" smooth="yes"/>
      <point x="-14" y="-204"/>
      <point x="-50" y="-190"/>
      <point x="-66" y="-185" type="curve"/>
      <point x="-70" y="-220" type="line"/>
      <point x="-47" y="-228"/>
      <point x="-11" y="-236"/>
      <point x="38" y="-236" type="curve" smooth="yes"/>
      <point x="185" y="-236"/>
      <point x="276" y="-139"/>
    </contour>
  </outline>
</glyph>
<glyph name="heartsuitwhite" format="2">
  <advance width="1125"/>
  <outline>
    <contour>
      <point x="557" y="495" type="curve"/>
      <point x="570" y="495" type="line"/>
      <point x="608" y="584"/>
      <point x="686" y="671"/>
      <point x="808" y="671" type="curve" smooth="yes"/>
      <point x="924" y="671"/>
      <point x="989" y="613"/>
      <point x="989" y="531" type="curve" smooth="yes"/>
      <point x="989" y="448"/>
      <point x="933" y="390"/>
      <point x="834" y="296" type="curve" smooth="yes"/>
      <point x="546" y="24" type="line"/>
      <point x="580" y="24" type="line"/>
      <point x="292" y="296" type="line" smooth="yes"/>
      <point x="195" y="388"/>
      <point x="137" y="448"/>
      <point x="137" y="531" type="curve" smooth="yes"/>
      <point x="137" y="613"/>
      <point x="202" y="671"/>
      <point x="318" y="671" type="curve" smooth="yes"/>
      <point x="437" y="671"/>
      <point x="517" y="584"/>
    </contour>
    <contour>
      <point x="578" y="-10" type="line"/>
      <point x="877" y="273" type="line" smooth="yes"/>
      <point x="984" y="375"/>
      <point x="1043" y="437"/>
      <point x="1043" y="535" type="curve" smooth="yes"/>
      <point x="1043" y="632"/>
      <point x="960" y="710"/>
      <point x="813" y="710" type="curve" smooth="yes"/>
      <point x="696" y="710"/>
      <point x="611" y="657"/>
      <point x="564" y="569" type="curve"/>
      <point x="514" y="657"/>
      <point x="430" y="710"/>
      <point x="312" y="710" type="curve" smooth="yes"/>
      <point x="166" y="710"/>
      <point x="82" y="632"/>
      <point x="82" y="535" type="curve" smooth="yes"/>
      <point x="82" y="437"/>
      <point x="142" y="375"/>
      <point x="249" y="273" type="curve" smooth="yes"/>
      <point x="548" y="-10" type="line"/>
    </contour>
  </outline>
</glyph>
<glyph name="slash.uc" format="2">
  <advance width="499"/>
  <outline>
    <contour>
      <point x="472" y="749" type="line"/>
      <point x="28" y="-38" type="line"/>
      <point x="77" y="-38" type="line"/>
      <point x="521" y="749" type="line"/>
    </contour>
  </outline>
</glyph>
<glyph name="three.den" format="2">
  <advance width="397"/>
  <outline>
    <contour>
      <point x="193" y="20" type="curve" smooth="yes"/>
      <point x="259" y="20"/>
      <point x="289" y="55"/>
      <point x="289" y="97" type="curve" smooth="yes"/>
      <point x="289" y="141"/>
      <point x="259" y="168"/>
      <point x="173" y="168" type="curve" smooth="yes"/>
      <point x="126" y="168" type="line"/>
      <point x="126" y="193" type="line"/>
      <point x="164" y="193" type="line" smooth="yes"/>
      <point x="234" y="193"/>
      <point x="273" y="210"/>
      <point x="273" y="259" type="curve" smooth="yes"/>
      <point x="273" y="303"/>
      <point x="240" y="321"/>
      <point x="192" y="321" type="curve" smooth="yes"/>
      <point x="144" y="321"/>
      <point x="111" y="306"/>
      <point x="94" y="285" type="curve"/>
      <point x="95" y="305"/>
      <point x="100" y="314"/>
      <point x="119" y="317" type="curve"/>
      <point x="119" y="250" type="line"/>
      <point x="50" y="250" type="line"/>
      <point x="50" y="303" type="line"/>
      <point x="75" y="323"/>
      <point x="125" y="347"/>
      <point x="197" y="347" type="curve" smooth="yes"/>
      <point x="285" y="347"/>
      <point x="352" y="317"/>
      <point x="352" y="264" type="curve" smooth="yes"/>
      <point x="352" y="207"/>
      <point x="271" y="179"/>
      <point x="172" y="179" type="curve"/>
      <point x="184" y="186" type="line"/>
      <point x="321" y="186"/>
      <point x="371" y="149"/>
      <point x="371" y="95" type="curve" smooth="yes"/>
      <point x="371" y="33"/>
      <point x="298" y="-6"/>
      <point x="198" y="-6" type="curve" smooth="yes"/>
      <point x="102" y="-6"/>
      <point x="43" y="34"/>
      <point x="17" y="86" type="curve"/>
      <point x="48" y="103" type="line"/>
      <point x="68" y="57"/>
      <point x="121" y="20"/>
    </contour>
  </outline>
</glyph>
<glyph name="whitecircle" format="2">
  <advance width="736"/>
  <outline>
    <contour>
      <point x="368" y="80" type="curve" smooth="yes"/>
      <point x="527" y="80"/>
      <point x="653" y="177"/>
      <point x="653" y="304" type="curve" smooth="yes"/>
      <point x="653" y="431"/>
      <point x="527" y="528"/>
      <point x="368" y="528" type="curve" smooth="yes"/>
      <point x="209" y="528"/>
      <point x="82" y="431"/>
      <point x="82" y="304" type="curve" smooth="yes"/>
      <point x="82" y="177"/>
      <point x="209" y="80"/>
    </contour>
    <contour>
      <point x="368" y="118" type="curve" smooth="yes"/>
      <point x="232" y="118"/>
      <point x="134" y="193"/>
      <point x="134" y="304" type="curve" smooth="yes"/>
      <point x="134" y="415"/>
      <point x="232" y="490"/>
      <point x="368" y="490" type="curve" smooth="yes"/>
      <point x="503" y="490"/>
      <point x="601" y="415"/>
      <point x="601" y="304" type="curve" smooth="yes"/>
      <point x="601" y="193"/>
      <point x="503" y="118"/>
    </contour>
  </outline>
</glyph>
<glyph name="whiterightpointingtriangle" format="2">
  <advance width="712"/>
  <outline>
    <contour>
      <point x="158" y="545" type="line"/>
      <point x="158" y="10" type="line"/>
      <point x="629" y="277" type="line"/>
    </contour>
    <contour>
      <point x="209" y="474" type="line"/>
      <point x="202" y="470" type="line"/>
      <point x="550" y="274" type="line"/>
      <point x="550" y="281" type="line"/>
      <point x="202" y="84" type="line"/>
      <point x="209" y="80" type="line"/>
    </contour>
  </outline>
</glyph>
<glyph name="whitesquare" format="2">
  <advance width="730"/>
  <outline>
    <contour>
      <point x="102" y="104" type="line"/>
      <point x="629" y="104" type="line"/>
      <point x="629" y="522" type="line"/>
      <point x="102" y="522" type="line"/>
    </contour>
    <contour>
      <point x="149" y="142" type="line"/>
      <point x="149" y="484" type="line"/>
      <point x="581" y="484" type="line"/>
      <point x="581" y="142" type="line"/>
    </contour>
  </outline>
</glyph>
<glyph name="zero.lin" format="2">
  <advance width="695"/>
  <outline>
    <contour>
      <point x="348" y="-11" type="curve" smooth="yes"/>
      <point x="527" y="-11"/>
      <point x="653" y="126"/>
      <point x="653" y="354" type="curve" smooth="yes"/>
      <point x="653" y="583"/>
      <point x="527" y="720"/>
      <point x="348" y="720" type="curve" smooth="yes"/>
      <point x="168" y="720"/>
      <point x="42" y="583"/>
      <point x="42" y="354" type="curve" smooth="yes"/>
      <point x="42" y="126"/>
      <point x="168" y="-11"/>
    </contour>
    <contour>
      <point x="348" y="19" type="curve" smooth="yes"/>
      <point x="214" y="19"/>
      <point x="143" y="139"/>
      <point x="143" y="354" type="curve" smooth="yes"/>
      <point x="143" y="569"/>
      <point x="214" y="690"/>
      <point x="348" y="690" type="curve" smooth="yes"/>
      <point x="481" y="690"/>
      <point x="552" y="569"/>
      <point x="552" y="354" type="curve" smooth="yes"/>
      <point x="552" y="139"/>
      <point x="481" y="19"/>
    </contour>
  </outline>
</glyph>
